<?xml version="1.0" standalone="no"?>
<!DOCTYPE svg PUBLIC "-//W3C//DTD SVG 20010904//EN"
 "http://www.w3.org/TR/2001/REC-SVG-20010904/DTD/svg10.dtd">
<svg version="1.0" xmlns="http://www.w3.org/2000/svg"
 width="800.000000pt" height="800.000000pt" viewBox="0 0 800.000000 800.000000"
 preserveAspectRatio="xMidYMid meet">
<metadata>
Created by potrace 1.14, written by Peter Selinger 2001-2017
</metadata>
<g transform="translate(0.000000,800.000000) scale(0.100000,-0.100000)"
fill="#000000" stroke="none">
<path d="M3524 6081 c-18 -11 -45 -36 -60 -57 l-29 -37 -3 -256 -3 -256 30
-47 c18 -29 45 -55 70 -68 40 -20 52 -20 1040 -20 682 0 1009 3 1028 11 15 5
41 22 56 37 56 52 57 60 57 332 0 289 -4 308 -83 355 l-44 25 -1014 0 c-981 0
-1015 -1 -1045 -19z"/>
<path d="M2392 4933 c-18 -8 -45 -31 -61 -49 -39 -43 -43 -86 -39 -355 3 -207
4 -217 27 -250 51 -74 48 -74 321 -77 135 -2 260 0 278 3 45 8 97 57 117 109
14 36 16 79 13 278 l-3 236 -30 43 c-54 76 -66 79 -345 79 -205 0 -250 -3
-278 -17z"/>
<path d="M3530 4931 c-19 -10 -48 -37 -65 -60 l-30 -43 -3 -243 c-3 -271 -1
-285 68 -350 l31 -30 1039 0 c1038 0 1039 0 1067 21 15 11 38 38 50 60 22 37
23 49 23 282 0 264 -3 284 -56 334 -16 15 -42 32 -57 37 -19 8 -347 11 -1030
11 -957 0 -1004 -1 -1037 -19z"/>
<path d="M2382 3793 c-18 -9 -45 -32 -60 -51 l-27 -35 -3 -1027 -2 -1027 30
-41 c56 -77 76 -82 347 -82 276 0 300 6 350 81 l28 43 0 1021 0 1022 -28 41
c-49 69 -61 72 -349 72 -214 0 -258 -3 -286 -17z"/>
<path d="M3535 3798 c-32 -17 -76 -61 -91 -90 -12 -23 -14 -187 -14 -1036 l0
-1009 32 -48 c53 -80 72 -85 351 -85 271 0 291 5 347 82 l30 41 0 1024 0 1023
-53 55 -53 55 -265 0 c-173 -1 -271 -4 -284 -12z"/>
</g>
</svg>
